<svg width="20" height="20" viewBox="0 0 20 20" fill="none" xmlns="http://www.w3.org/2000/svg">
<path d="M20 10C20.0016 11.2846 19.7549 12.5575 19.2737 13.7485C19.2725 13.7512 19.2716 13.7535 19.2704 13.7562V13.7565C18.9469 14.554 18.5214 15.3063 18.0044 15.9944C17.9047 16.1275 17.8019 16.2579 17.6959 16.3855C17.6571 16.4322 17.6178 16.4787 17.5784 16.5246C17.3758 16.7598 17.1625 16.9851 16.9388 17.2006C16.8867 17.2509 16.834 17.3006 16.7808 17.3497C16.7684 17.3612 16.7559 17.3725 16.7435 17.384C16.4829 17.6222 16.2098 17.8464 15.9255 18.0556C15.7346 18.1967 15.5388 18.3308 15.3379 18.4577C15.2938 18.4858 15.2494 18.5134 15.2047 18.5405C15.1272 18.5879 15.049 18.6341 14.9701 18.6793C14.8672 18.7385 14.7629 18.7958 14.6574 18.8512C14.6148 18.874 14.5719 18.8959 14.529 18.9177C14.4663 18.95 14.4033 18.9811 14.3397 19.0115C14.3287 19.0169 14.3178 19.0222 14.3068 19.0272C14.2654 19.0473 14.2234 19.0669 14.1814 19.0864C13.6342 19.3387 13.0652 19.5407 12.4814 19.6896C12.4781 19.6905 12.4752 19.6911 12.4719 19.692C12.4337 19.7018 12.3953 19.7112 12.3568 19.7204C12.3281 19.7275 12.2991 19.7343 12.2701 19.7408C12.2666 19.742 12.2629 19.7429 12.2592 19.7435C12.1997 19.7574 12.1402 19.7707 12.0802 19.7828C12.0465 19.7899 12.0127 19.797 11.979 19.8038C11.9586 19.8083 11.9379 19.8121 11.9175 19.816C11.8917 19.821 11.8663 19.8257 11.8405 19.8308C11.8263 19.8337 11.8121 19.8361 11.7976 19.8385C11.7651 19.8444 11.7326 19.8503 11.7003 19.8559C11.6453 19.8654 11.5897 19.8746 11.5343 19.8828C11.4941 19.889 11.4542 19.895 11.4139 19.9006C11.3666 19.9074 11.3192 19.9136 11.2716 19.9195C11.2586 19.9216 11.2456 19.9231 11.2326 19.9246C11.2157 19.9266 11.1988 19.9287 11.182 19.9308C11.1479 19.9349 11.1139 19.9388 11.0796 19.9423C11.0618 19.9444 11.0444 19.9462 11.0266 19.9479C10.9929 19.9515 10.9592 19.9547 10.9255 19.9577C10.882 19.9618 10.8385 19.9654 10.7947 19.9689C10.7414 19.9731 10.6885 19.9769 10.6349 19.9802C10.6006 19.9822 10.5663 19.9843 10.5317 19.9861C10.4435 19.9908 10.3553 19.9941 10.2666 19.9964C10.2225 19.9976 10.1781 19.9985 10.1337 19.9991H10.1329C10.0888 19.9997 10.0444 20 10 20C9.55028 20.0002 9.10104 19.9701 8.65534 19.9101C8.32841 19.8663 8.00672 19.8069 7.69025 19.7319C7.67753 19.729 7.66481 19.726 7.65238 19.7228C7.62043 19.7154 7.58877 19.7074 7.55711 19.6994C7.52901 19.6923 7.5012 19.6849 7.47309 19.6775C6.74872 19.489 6.04801 19.2191 5.38433 18.8731C5.38108 18.8713 5.37753 18.8695 5.37427 18.8677C5.35504 18.8577 5.33611 18.8479 5.31717 18.8376C5.27546 18.8157 5.23394 18.7934 5.19262 18.7707C4.95741 18.6414 4.72822 18.5032 4.50504 18.3559C4.44765 18.3183 4.39084 18.2802 4.33463 18.2414C4.31658 18.229 4.29883 18.2166 4.28108 18.2041C4.26244 18.1911 4.2438 18.1781 4.22546 18.1651C4.17664 18.1305 4.12812 18.0955 4.07989 18.0601C3.88019 17.9133 3.6864 17.7594 3.49853 17.5982C2.83263 17.0279 2.24421 16.373 1.74824 15.65C1.57516 15.3979 1.41362 15.1378 1.26362 14.8695C0.432352 13.3813 -0.00275214 11.7046 1.30986e-05 10C1.30986e-05 4.47722 4.47723 0 10 0C15.5228 0 20 4.47722 20 10V10Z" fill="#6C63FF"/>
<path opacity="0.2" d="M11.608 19.7228C11.64 19.7154 11.6716 19.7074 11.7033 19.6994C11.7314 19.6923 11.7592 19.6849 11.7873 19.6775C11.7888 19.6186 11.7909 19.5538 11.7929 19.4837C11.8104 18.9346 11.8515 18.0506 11.9486 16.9855C11.9539 16.9284 11.9592 16.8709 11.9645 16.813C11.9992 16.4521 12.0397 16.0725 12.0882 15.679C12.0897 15.666 12.0915 15.6533 12.0929 15.6402C12.1323 15.3213 12.177 14.9938 12.2273 14.6601C12.2625 14.4266 12.3005 14.1906 12.3415 13.9521C12.3444 13.9355 12.3474 13.9186 12.3503 13.9021C12.3622 13.8331 12.3743 13.7645 12.3867 13.6953C12.4213 13.5027 12.4583 13.3089 12.4971 13.1151C12.6335 12.4334 12.7959 11.7476 12.9897 11.0805C13.1865 10.3886 13.429 9.71046 13.7154 9.05059C13.9376 8.53798 14.2022 8.04484 14.5066 7.57633C14.511 7.56953 14.5154 7.56302 14.5199 7.55621C14.9089 6.97012 15.3536 6.47278 15.8613 6.10089L15.756 5.9571C15.2696 6.31361 14.8234 6.78797 14.4175 7.38018C14.4154 7.38314 14.4137 7.3858 14.4116 7.38876C14.1063 7.8414 13.8399 8.31904 13.6151 8.81657C13.3142 9.48206 13.0603 10.1679 12.8554 10.8689C12.6613 11.5204 12.4872 12.2262 12.3332 12.9864C12.279 13.2541 12.2274 13.5285 12.1782 13.8095C12.1699 13.8574 12.1616 13.9053 12.1533 13.9535C12.1533 13.9541 12.153 13.955 12.153 13.9556C12.1403 14.0296 12.1282 14.1035 12.1157 14.1784C12.085 14.3669 12.056 14.5538 12.0287 14.7393C11.9867 15.0251 11.9488 15.306 11.9148 15.5819C11.9036 15.6731 11.8927 15.7635 11.8823 15.8533C11.8675 15.9799 11.8535 16.1048 11.8403 16.2281C11.8216 16.3997 11.8046 16.5676 11.7891 16.7319L11.7847 16.7772C11.7823 16.8033 11.7799 16.8293 11.7776 16.855C11.6574 18.1506 11.6199 19.197 11.608 19.7228V19.7228Z" fill="black"/>
<path opacity="0.2" d="M13.8761 18.8731C13.8794 18.8713 13.8829 18.8695 13.8862 18.8677C13.9471 18.8361 14.0075 18.8038 14.0678 18.7707C14.0876 18.5346 14.1143 18.2751 14.1492 18.0024C14.1566 17.9461 14.164 17.889 14.1723 17.8317C14.1764 17.8009 14.1808 17.7698 14.1853 17.7385C14.2202 17.4982 14.2616 17.2503 14.3113 17.0012C14.5134 15.9846 14.8489 14.9456 15.406 14.3041C15.4359 14.2695 15.4663 14.2364 15.498 14.2041C15.5764 14.1226 15.6617 14.0479 15.7527 13.9808L15.6474 13.8373C15.5203 13.9313 15.4033 14.0383 15.2983 14.1565C15.2613 14.1976 15.2252 14.2404 15.19 14.2849C14.6773 14.9302 14.3572 15.8855 14.1578 16.8314C14.1057 17.0781 14.0619 17.3246 14.0246 17.5645C14.0152 17.6272 14.0061 17.6893 13.9974 17.7509C13.9397 18.1574 13.9015 18.5414 13.8761 18.8731V18.8731Z" fill="black"/>
<path opacity="0.2" d="M16.8561 6.09675C17.3478 6.09675 17.7463 5.6982 17.7463 5.20656C17.7463 4.71491 17.3478 4.31636 16.8561 4.31636C16.3645 4.31636 15.9659 4.71491 15.9659 5.20656C15.9659 5.6982 16.3645 6.09675 16.8561 6.09675Z" fill="black"/>
<path opacity="0.2" d="M16.5695 13.7597C17.0612 13.7597 17.4597 13.3612 17.4597 12.8695C17.4597 12.3779 17.0612 11.9794 16.5695 11.9794C16.0779 11.9794 15.6793 12.3779 15.6793 12.8695C15.6793 13.3612 16.0779 13.7597 16.5695 13.7597Z" fill="black"/>
<path opacity="0.2" d="M13.3221 6.70182C13.5109 7.76683 13.0942 8.73118 13.0942 8.73118C13.0942 8.73118 12.3714 7.9688 12.1826 6.90379C11.9938 5.83878 12.4106 4.87444 12.4106 4.87444C12.4106 4.87444 13.1333 5.63681 13.3221 6.70182Z" fill="black"/>
<path opacity="0.2" d="M16.2806 9.22992C15.2648 9.60137 14.244 9.36299 14.244 9.36299C14.244 9.36299 14.8702 8.52238 15.8861 8.15093C16.9019 7.77948 17.9227 8.01785 17.9227 8.01785C17.9227 8.01785 17.2964 8.85847 16.2806 9.22992V9.22992Z" fill="black"/>
<path opacity="0.2" d="M16.4528 16.0158C15.7408 16.2761 15.0243 16.1063 15.0243 16.1063C15.0243 16.1063 15.4622 15.5143 16.1742 15.254C16.8862 14.9936 17.6027 15.1635 17.6027 15.1635C17.6027 15.1635 17.1648 15.7554 16.4528 16.0158Z" fill="black"/>
<path d="M13.0166 15.866L13.0527 15.8846C13.0491 15.9231 13.0406 15.9467 13.0166 15.866Z" fill="#2F2E41"/>
<path d="M13.0643 15.8784C13.0646 15.8825 13.0652 15.887 13.0655 15.8911L13.0527 15.8846C13.053 15.8808 13.0533 15.8766 13.0539 15.8725C13.0569 15.8207 13.0533 15.7595 13.0643 15.8784Z" fill="#2F2E41"/>
<path d="M9.22141 14.463C11.9046 14.463 14.0797 12.2879 14.0797 9.60476C14.0797 6.92162 11.9046 4.74651 9.22141 4.74651C6.53827 4.74651 4.36316 6.92162 4.36316 9.60476C4.36316 12.2879 6.53827 14.463 9.22141 14.463Z" fill="#2F2E41"/>
<path d="M9.62134 14.265C11.2462 14.265 12.5635 12.9478 12.5635 11.3229C12.5635 9.69796 11.2462 8.38071 9.62134 8.38071C7.99644 8.38071 6.6792 9.69796 6.6792 11.3229C6.6792 12.9478 7.99644 14.265 9.62134 14.265Z" fill="#D0CDE1"/>
<path d="M16.3394 16.9618L16.3359 16.9627L15.6516 17.1269L14.2267 17.4689L14.0323 17.5157L11.8655 18.0355L11.6814 18.0799L6.42434 19.3414C6.06895 19.2055 5.72172 19.0491 5.38439 18.8731C5.38114 18.8713 5.37759 18.8695 5.37433 18.8677C5.3551 18.8577 5.33617 18.8479 5.31723 18.8376C5.27552 18.8157 5.234 18.7934 5.19268 18.7707C4.95747 18.6414 4.72828 18.5031 4.5051 18.3559C4.44771 18.3183 4.3909 18.2802 4.33469 18.2414C4.31664 18.229 4.29889 18.2166 4.28114 18.2041C4.2625 18.1911 4.24386 18.1781 4.22552 18.1651C4.1767 18.1305 4.12818 18.0955 4.07996 18.0601C4.59061 17.1319 5.80658 16.5151 7.02256 16.1775C7.94031 15.9225 8.14209 15.0843 8.12463 14.3385C8.12019 14.1683 8.10577 13.9986 8.08144 13.8302C8.04436 13.5621 7.98539 13.2975 7.9051 13.039L10.8474 13.1373L11.151 13.8367C11.1427 13.9135 11.14 13.9908 11.143 14.068C11.1661 14.6417 11.5202 15.0127 11.9572 15.2521C12.014 15.2831 12.0723 15.3121 12.1314 15.339C12.848 15.6648 13.6915 15.687 13.6915 15.687C13.9483 15.6586 14.2078 15.6635 14.4634 15.7015C14.5255 15.7109 14.5859 15.7223 14.6445 15.7355C14.9865 15.8119 15.3096 15.9565 15.5945 16.1606C15.7033 16.238 15.8062 16.3234 15.9024 16.416C16.0735 16.5761 16.2207 16.7599 16.3394 16.9618V16.9618Z" fill="#D0CDE1"/>
<path d="M16.7808 17.3497C16.7683 17.3612 16.7559 17.3725 16.7435 17.384C16.4828 17.6222 16.2098 17.8464 15.9254 18.0556C15.7346 18.1967 15.5387 18.3308 15.3379 18.4577C15.2938 18.4858 15.2494 18.5134 15.2047 18.5405C15.1272 18.5879 15.049 18.6341 14.9701 18.6793C14.8671 18.7385 14.7629 18.7958 14.6574 18.8512C14.6148 18.874 14.5719 18.8959 14.529 18.9177C14.4663 18.95 14.4032 18.9811 14.3396 19.0115C14.3287 19.0169 14.3177 19.0222 14.3068 19.0272L14.1816 18.9234L15.6515 17.1269L15.947 16.7657C15.947 16.7657 16.0651 16.7657 16.3358 16.9627C16.4854 17.0741 16.6268 17.1961 16.7589 17.3278C16.766 17.3352 16.7734 17.3423 16.7808 17.3497V17.3497Z" fill="#D0CDE1"/>
<path d="M16.76 17.3296C16.7561 17.3482 16.7505 17.3664 16.7435 17.384C16.4828 17.6222 16.2098 17.8464 15.9254 18.0556C15.6787 18.1446 15.4227 18.2054 15.1624 18.237C15.1624 18.237 15.1846 18.3482 15.2047 18.5405C15.1272 18.5879 15.049 18.6341 14.9701 18.6793C14.8671 18.7385 14.7629 18.7958 14.6574 18.8512C14.6148 18.874 14.5719 18.8959 14.529 18.9177C14.4663 18.95 14.4032 18.9811 14.3396 19.0115C14.3287 19.0169 14.3177 19.0222 14.3068 19.0272C14.2654 19.0473 14.2234 19.0669 14.1813 19.0864C13.6342 19.3387 13.0652 19.5407 12.4813 19.6896C12.4781 19.6905 12.4751 19.6911 12.4719 19.692C12.4337 19.7018 12.3952 19.7112 12.3568 19.7204C12.3281 19.7275 12.2991 19.7343 12.2701 19.7408C12.2665 19.742 12.2629 19.7429 12.2591 19.7435C12.1997 19.7574 12.1402 19.7707 12.0802 19.7828C12.0464 19.7899 12.0127 19.797 11.979 19.8038C11.9586 19.8083 11.9378 19.8121 11.9174 19.816C11.8917 19.821 11.8663 19.8257 11.8405 19.8308C11.8263 19.8337 11.8121 19.8361 11.7976 19.8385C11.7651 19.8444 11.7325 19.8503 11.7003 19.8559C11.6452 19.8654 11.5896 19.8746 11.5343 19.8828C11.4941 19.889 11.4541 19.895 11.4139 19.9006C11.3665 19.9074 11.3192 19.9136 11.2716 19.9195C11.2586 19.9216 11.2455 19.9231 11.2325 19.9246C11.2157 19.9266 11.1988 19.9287 11.1819 19.9308C11.1479 19.9349 11.1139 19.9388 11.0796 19.9423C11.0618 19.9444 11.0444 19.9461 11.0266 19.9479C10.9929 19.9515 10.9592 19.9547 10.9254 19.9577C10.8819 19.9618 10.8384 19.9654 10.7947 19.9689C10.7414 19.9731 10.6884 19.9769 10.6349 19.9802C10.6006 19.9822 10.5662 19.9843 10.5316 19.9861C10.4435 19.9908 10.3553 19.9941 10.2665 19.9964C10.2225 19.9976 10.1781 19.9985 10.1337 19.9991H10.1328C10.0887 19.9997 10.0444 20 9.99998 20C9.55024 20.0002 9.10101 19.9701 8.6553 19.9101C8.32838 19.8663 8.00668 19.8069 7.69022 19.7319C7.67749 19.729 7.66477 19.726 7.65235 19.7228C7.62039 19.7154 7.58874 19.7074 7.55708 19.6994C7.52897 19.6923 7.50116 19.6849 7.47306 19.6775C6.74869 19.489 6.04798 19.2191 5.3843 18.8731C5.38104 18.8713 5.37749 18.8695 5.37424 18.8677C5.35501 18.8577 5.33607 18.8479 5.31714 18.8376C6.9411 18.4592 9.50737 17.8624 11.7343 17.3512C11.7967 17.337 11.8588 17.3228 11.9204 17.3086C12.7429 17.1198 13.5133 16.9441 14.1651 16.797C14.2325 16.7819 14.2986 16.7672 14.3633 16.7527C15.0636 16.5953 15.6074 16.4757 15.9023 16.416C15.9819 16.3978 16.0622 16.3837 16.1432 16.3737L16.7589 17.3278L16.76 17.3296Z" fill="#2F2E41"/>
<path d="M4.77661 7.53741C5.57584 7.53741 6.22375 6.88951 6.22375 6.09027C6.22375 5.29104 5.57584 4.64314 4.77661 4.64314C3.97737 4.64314 3.32947 5.29104 3.32947 6.09027C3.32947 6.88951 3.97737 7.53741 4.77661 7.53741Z" fill="#2F2E41"/>
<path d="M13.6661 7.12395C14.4654 7.12395 15.1133 6.47604 15.1133 5.67681C15.1133 4.87757 14.4654 4.22967 13.6661 4.22967C12.8669 4.22967 12.219 4.87757 12.219 5.67681C12.219 6.47604 12.8669 7.12395 13.6661 7.12395Z" fill="#2F2E41"/>
<path d="M12.1157 5.05661C12.1157 4.69969 12.2477 4.35537 12.4862 4.08983C12.7247 3.82429 13.0529 3.65626 13.4077 3.61802C13.2057 3.59595 13.0012 3.6167 12.8076 3.67893C12.6141 3.74116 12.4358 3.84348 12.2845 3.9792C12.1331 4.11492 12.0121 4.28102 11.9292 4.46665C11.8463 4.65229 11.8035 4.85331 11.8035 5.05661C11.8035 5.25991 11.8463 5.46092 11.9292 5.64656C12.0121 5.8322 12.1331 5.99829 12.2845 6.13402C12.4358 6.26974 12.6141 6.37205 12.8076 6.43428C13.0012 6.49651 13.2057 6.51727 13.4077 6.49519C13.0529 6.45696 12.7247 6.28893 12.4862 6.02339C12.2477 5.75784 12.1157 5.41353 12.1157 5.05661V5.05661Z" fill="#2F2E41"/>
<path d="M3.15966 7.26084C2.9099 7.00587 2.76318 6.66758 2.74769 6.311C2.73221 5.95441 2.84905 5.60468 3.07577 5.32901C2.91596 5.45468 2.78443 5.61261 2.68974 5.79251C2.59506 5.97241 2.53934 6.17025 2.52621 6.37312C2.51309 6.57599 2.54286 6.77936 2.61358 6.96996C2.6843 7.16056 2.79439 7.33412 2.93667 7.47933C3.07895 7.62454 3.25023 7.73815 3.43935 7.81274C3.62846 7.88734 3.83118 7.92125 4.03428 7.91226C4.23738 7.90328 4.43631 7.8516 4.6181 7.76061C4.79989 7.66961 4.96048 7.54132 5.08938 7.38412C4.80914 7.60516 4.4571 7.71485 4.10091 7.6921C3.74471 7.66934 3.40949 7.51575 3.15966 7.26084V7.26084Z" fill="#2F2E41"/>
<path d="M9.10101 7C7.38837 7 6 7.80988 6 8.80892C6 9.25594 6.27907 9.66448 6.73973 9.98009L7.33671 9.54754L7.17437 10.2252C7.24173 10.2564 7.31051 10.2866 7.38225 10.3145L8.27408 9.27408V10.5523C8.54754 10.5961 8.82406 10.618 9.10101 10.6178C10.8137 10.6178 12.202 9.80797 12.202 8.80892C12.202 7.80988 10.8137 7 9.10101 7V7Z" fill="#2F2E41"/>
<path d="M12.2191 5.67681C12.2191 5.67681 11.9944 6.71048 13.3989 7.12395L12.2191 5.67681Z" fill="#2F2E41"/>
<path d="M6.12046 5.86494C6.12046 5.86494 6.6373 7.02058 5.08679 7.53742L6.12046 5.86494Z" fill="#2F2E41"/>
<path d="M6.88686 12.4779C7.01725 12.4414 7.05194 12.1581 6.96433 11.8452C6.87672 11.5322 6.69999 11.3081 6.5696 11.3446C6.4392 11.3811 6.40452 11.6644 6.49213 11.9774C6.57974 12.2903 6.75646 12.5144 6.88686 12.4779Z" fill="#D0CDE1"/>
<path d="M12.8571 11.436C12.8771 11.1116 12.7838 10.8419 12.6486 10.8336C12.5134 10.8253 12.3877 11.0815 12.3677 11.4059C12.3477 11.7302 12.4411 11.9999 12.5763 12.0082C12.7114 12.0166 12.8372 11.7604 12.8571 11.436Z" fill="#D0CDE1"/>
</svg>
