<svg width="20" height="20" viewBox="0 0 20 20" fill="none" xmlns="http://www.w3.org/2000/svg">
<path d="M20 9.99999C20.0018 11.3537 19.7278 12.6936 19.1947 13.9379L19.1615 14.0142C18.2598 16.0656 16.6961 17.7555 14.7207 18.8134C12.7453 19.8714 10.4721 20.2363 8.26478 19.85C8.20473 19.8393 8.14477 19.8283 8.0849 19.8168C7.46636 19.6969 6.86066 19.5183 6.27603 19.2834C6.18106 19.2452 6.08678 19.2057 5.99319 19.1648C5.92928 19.137 5.86538 19.1083 5.80207 19.0787C4.07009 18.276 2.6037 16.9948 1.57572 15.3863C0.547736 13.7778 0.00101676 11.9089 0 9.99999C0 4.47721 4.47721 0 9.99999 0C15.5228 0 20 4.47721 20 9.99999Z" fill="#6C63FF"/>
<path opacity="0.2" d="M8.26476 19.85C8.2047 19.8393 8.14474 19.8283 8.08488 19.8168C8.04583 18.6834 7.9118 16.3571 7.4547 13.9207C7.2047 12.5873 6.85766 11.2204 6.3763 9.99852C6.21139 9.57573 6.02303 9.16246 5.8121 8.76065C5.32571 7.84201 4.73577 7.06864 4.02039 6.54467L4.12571 6.40089C4.72068 6.83698 5.25539 7.44921 5.72985 8.23757C5.87216 8.47367 6.00885 8.72554 6.13991 8.99319C6.28044 9.27958 6.41447 9.58362 6.54198 9.90532C6.62334 10.1101 6.70194 10.3219 6.77778 10.5408C7.10796 11.4914 7.38863 12.576 7.61979 13.7947C7.67098 14.0639 7.71969 14.3397 7.76595 14.6222C8.12423 16.8106 8.23222 18.834 8.26476 19.85Z" fill="black"/>
<path opacity="0.2" d="M5.99323 19.1648C5.92932 19.137 5.86542 19.1083 5.8021 19.0787C5.74027 18.4071 5.62666 17.5739 5.41897 16.7831C5.328 16.4279 5.21122 16.0799 5.06956 15.7417C4.83258 15.187 4.52577 14.7154 4.12903 14.4245L4.23435 14.2811C4.64974 14.5852 4.97015 15.066 5.21778 15.6284C5.49678 16.2621 5.68287 16.9997 5.80684 17.7044C5.89885 18.2278 5.95684 18.7334 5.99323 19.1648Z" fill="black"/>
<path opacity="0.2" d="M3.02545 6.54053C3.51709 6.54053 3.91564 6.14198 3.91564 5.65034C3.91564 5.1587 3.51709 4.76015 3.02545 4.76015C2.53381 4.76015 2.13525 5.1587 2.13525 5.65034C2.13525 6.14198 2.53381 6.54053 3.02545 6.54053Z" fill="black"/>
<path opacity="0.2" d="M3.31219 14.2035C3.80383 14.2035 4.20238 13.805 4.20238 13.3133C4.20238 12.8217 3.80383 12.4231 3.31219 12.4231C2.82055 12.4231 2.422 12.8217 2.422 13.3133C2.422 13.805 2.82055 14.2035 3.31219 14.2035Z" fill="black"/>
<path opacity="0.2" d="M6.55969 7.1456C6.37092 8.2106 6.78764 9.17495 6.78764 9.17495C6.78764 9.17495 7.51041 8.41258 7.69918 7.34757C7.88795 6.28256 7.47124 5.31821 7.47124 5.31821C7.47124 5.31821 6.74846 6.08059 6.55969 7.1456Z" fill="black"/>
<path opacity="0.2" d="M3.60103 9.6737C4.61685 10.0451 5.63761 9.80677 5.63761 9.80677C5.63761 9.80677 5.0114 8.96616 3.99557 8.59471C2.97975 8.22326 1.95898 8.46163 1.95898 8.46163C1.95898 8.46163 2.5852 9.30224 3.60103 9.6737Z" fill="black"/>
<path opacity="0.2" d="M3.42874 16.4595C4.14075 16.7199 4.85723 16.5501 4.85723 16.5501C4.85723 16.5501 4.41931 15.9581 3.7073 15.6977C2.99529 15.4374 2.27881 15.6072 2.27881 15.6072C2.27881 15.6072 2.71673 16.1992 3.42874 16.4595Z" fill="black"/>
<path d="M9.97945 12.2145C12.1325 12.2145 13.878 10.469 13.878 8.31593C13.878 6.16284 12.1325 4.41741 9.97945 4.41741C7.82636 4.41741 6.08093 6.16284 6.08093 8.31593C6.08093 10.469 7.82636 12.2145 9.97945 12.2145Z" fill="#D0CDE1"/>
<path d="M8.45654 11.3007C8.45654 11.3007 8.94386 13.6155 8.94386 13.8591C8.94386 14.1028 11.2586 15.1993 11.2586 15.1993L13.3297 14.8338L14.0607 12.6408C14.0607 12.6408 12.8424 10.8134 12.8424 10.0824L8.45654 11.3007Z" fill="#D0CDE1"/>
<path d="M19.1947 13.9379L19.1615 14.0142C18.2598 16.0656 16.6961 17.7555 14.7207 18.8134C12.7453 19.8714 10.4721 20.2363 8.26479 19.85C8.20473 19.8393 8.14477 19.8283 8.08491 19.8168C7.46636 19.6969 6.86066 19.5183 6.27603 19.2834C6.18106 19.2452 6.08678 19.2057 5.99319 19.1648C5.92929 19.137 5.86538 19.1083 5.80207 19.0787C5.22819 18.8128 4.68086 18.493 4.16745 18.1236L3.70532 16.7831L3.96509 16.5849L4.4994 16.1769L5.06952 15.7417L5.21775 15.6284L7.45473 13.9207L7.61982 13.7947L8.78254 12.9071L8.78283 12.9068C8.78283 12.9068 10.0402 14.9556 11.8677 14.3464C13.6953 13.7373 13.6553 11.9905 13.6553 11.9905L19.1947 13.9379Z" fill="#2F2E41"/>
<path d="M6.59864 5.17502C6.59864 5.17502 7.8364 2.49319 10.2088 3.11208C12.5812 3.73096 13.9221 4.65929 14.0252 5.58761C14.1284 6.51593 13.9737 7.90842 13.9737 7.90842C13.9737 7.90842 13.7158 6.0002 12.0654 6.41279C10.4151 6.82538 7.8364 6.51593 7.8364 6.51593L7.42381 10.2292C7.42381 10.2292 6.95965 9.55878 6.44392 9.97136C5.92818 10.384 4.94828 6.0002 6.59864 5.17502Z" fill="#2F2E41"/>
<path d="M6.27608 19.2834C6.18111 19.2452 6.08683 19.2057 5.99324 19.1648C5.92933 19.137 5.86542 19.1083 5.80211 19.0787C4.85297 18.6386 3.97858 18.0526 3.21069 17.342C3.48259 16.9716 3.70537 16.7831 3.70537 16.7831H5.53288L5.80684 17.7044L6.27608 19.2834Z" fill="#2F2E41"/>
<path d="M17.5938 13.7373L19.1616 14.0142C18.742 14.97 18.1754 15.8541 17.4823 16.6346L17.5938 13.7373Z" fill="#2F2E41"/>
</svg>
